<svg xmlns="http://www.w3.org/2000/svg">
<defs>
<font horiz-adv-x="2048">
<!--  :  Regular
 ID: ADBO
 2014-2019 Adobe (http://www.adobe.com/), with Reserved Font Name 'Source'.
http://scripts.sil.org/OFL
URL for more Information: http://www.adobe.com/go/font_vendor_id?ID=ADBO&Name=&PSName=SourceHanSansSC-Regular&applanguage=zh_CN-->
<font-face font-family="BloggerSans_Light_Regular" units-per-em="2048" ascent="2375.684814453125" descent="589.8251953125"/>

<glyph unicode="p" horiz-adv-x="1269.760009765625" d="
M 188 -469
L 375 -469 375 -92 371 102
Q 447 40 524 7 604 -27 678 -27 774 -27 861 14 949 54 1016 131 1084 210 1122 319 1147 393 1161 573 1161 702 1132 806 1104 911 1048 985 991 1061 909 1100 825 1141 719 1141 629 1141 531 1094 450 1055 365 985
L 358 985 342 1112 188 1112 188 -469 Z
M 647 129
Q 587 129 521 155 445 185 375 246
L 375 829
Q 458 906 530 944 604 983 674 983 751 983 809 953 863 925 899 869 934 816 951 739 967 666 967 571 967 470 943 386 920 305 876 247 833 189 775 159 716 129 647 129 Z"/>

<glyph unicode="a" horiz-adv-x="1155.072021484375" d="
M 444 -27
Q 540 -27 640 20 724 60 813 133
L 819 133 836 0 989 0 989 684
Q 989 789 967 871 944 956 898 1015 850 1076 778 1108 704 1141 604 1141 541 1141 475 1127
L 357 1093
Q 262 1057 166 995
L 240 866
Q 318 919 391 948 485 985 573 985 639 985 686 961 729 940 756 899 781 861 793 809 803 762 803 705 623 684 496 651 366 617 283 567 200 517 159 448 119 380 119 289 119 215 143 155 167 97 212 56 255 16 315 -6 374 -27 444 -27 Z
M 498 123
Q 409 123 358 164 331 187 316 220 301 255 301 301 301 356 327 399 354 444 411 478 471 514 566 539 664 565 803 582
L 803 270
Q 717 194 650 161 576 123 498 123 Z"/>

<glyph unicode="g" horiz-adv-x="1153.0240478515625" d="
M 590 -385
Q 515 -385 455 -371 396 -357 354 -331 312 -305 290 -269 268 -233 268 -188 268 -137 295 -91 323 -42 381 0 455 -18 524 -18
L 717 -18
Q 832 -18 886 -49 944 -81 944 -156 944 -199 919 -241 893 -282 847 -314 799 -347 735 -366 667 -385 590 -385 Z
M 563 -512
Q 689 -512 796 -481 898 -451 974 -397 1047 -344 1087 -274 1126 -204 1126 -127 1126 -59 1102 -9 1078 41 1029 73 980 106 907 122 835 137 737 137
L 520 137
Q 414 137 367 171 326 200 326 258 326 301 346 335 362 361 397 391 475 352 563 352 647 352 722 379 795 406 850 457 907 508 937 579 969 652 969 739 969 809 944 871 920 929 879 969
L 1106 969 1106 1112 719 1112
Q 641 1141 563 1141 479 1141 403 1113 327 1085 270 1033 211 980 179 908 145 832 145 743 145 650 190 566 229 494 291 444
L 291 436
Q 239 400 207 352 166 292 166 229 166 166 195 118 221 75 268 47
L 268 39
Q 190 -12 147 -77 104 -143 104 -213 104 -284 138 -341 170 -396 232 -435 292 -473 377 -492 461 -512 563 -512 Z
M 563 479
Q 515 479 472 498 429 516 396 551 363 586 345 634 326 684 326 743 326 803 344 853 362 901 395 935 427 968 471 986 514 1004 563 1004 612 1004 656 986 699 968 731 934 764 900 782 852 801 803 801 743 801 684 781 634 763 586 730 551 697 516 654 498 611 479 563 479 Z"/>

<glyph unicode="e" horiz-adv-x="1134.592041015625" d="
M 637 -27
Q 743 -27 841 7 923 35 1006 88
L 938 211
Q 874 168 809 146 738 123 659 123 581 123 515 150 449 177 401 228 352 280 324 351 295 424 291 512
L 1040 512 1049 618
Q 1049 737 1019 834 990 930 933 999 876 1068 795 1104 711 1141 606 1141 509 1141 419 1100 328 1059 259 983 186 904 147 799 104 645 104 555
L 115 425 146 309
Q 186 203 260 127 332 52 429 13 526 -27 637 -27 Z
M 289 647
Q 297 727 326 793 354 855 398 901 441 945 495 968 549 991 608 991 673 991 725 969 776 947 812 903 848 859 866 795 885 730 885 647
L 289 647 Z"/>

<glyph unicode=" " horiz-adv-x="458.75201416015625"/>

<glyph unicode="i" horiz-adv-x="563.2000122070312" d="
M 188 0
L 375 0 375 1112 188 1112 188 0 Z
M 283 1341
Q 338 1341 373 1375 408 1410 408 1466 408 1520 373 1554 338 1587 283 1587 227 1587 193 1554 158 1520 158 1466 158 1410 193 1375 227 1341 283 1341 Z"/>

<glyph unicode="s" horiz-adv-x="958.4639892578125" d="
M 479 -27
Q 575 -27 653 0 727 24 780 71 831 115 858 176 885 235 885 303 885 378 854 436 828 488 775 528 732 562 666 592
L 545 641
Q 418 689 378 715 343 738 325 765 305 795 305 834 305 902 356 946 382 968 420 980 461 993 512 993 581 993 646 966 701 943 764 895
L 854 1016
Q 783 1071 701 1104 606 1141 510 1141 421 1141 348 1116 278 1093 227 1049 177 1006 151 949 125 891 125 825 125 758 154 704 180 655 229 615 271 582 334 552
L 451 504
Q 576 456 624 424 662 398 682 368 705 334 705 293 705 217 650 170 622 145 582 132 539 119 485 119 392 119 307 155 235 186 156 250
L 63 127
Q 147 58 252 17
L 363 -15 479 -27 Z"/>

<glyph unicode="n" horiz-adv-x="1251.3280029296875" d="
M 188 0
L 375 0 375 807
Q 466 898 527 934 599 977 680 977 736 977 775 960 815 943 841 907 866 871 879 814 891 759 891 680
L 891 0 1077 0 1077 705
Q 1077 812 1057 893 1036 975 995 1029 953 1085 889 1113 824 1141 737 1141 682 1141 630 1126 582 1112 534 1086 456 1042 365 952
L 358 952 342 1112 188 1112 188 0 Z"/>

<glyph unicode="o" horiz-adv-x="1241.0880126953125" d="
M 621 129
Q 549 129 489 160 430 190 388 246 345 303 322 380 299 460 299 555 299 650 322 730 345 809 388 866 430 923 489 954 549 985 621 985 692 985 752 954 811 923 855 866 898 809 921 730 944 650 944 555 944 460 921 380 898 303 855 246 811 190 752 160 692 129 621 129 Z
M 621 -27
Q 723 -27 816 12 910 52 981 126 1054 203 1094 309
L 1126 424 1137 555
Q 1137 648 1094 803 1054 909 981 987 910 1062 816 1101 723 1141 621 1141 518 1141 425 1101 331 1062 260 987 187 909 147 803 104 648 104 555
L 115 424 147 309
Q 187 203 260 126 331 52 425 12 518 -27 621 -27 Z"/>

<glyph unicode="t" horiz-adv-x="772.0960083007812" d="
M 539 -27
Q 616 -27 743 14
L 707 154
Q 633 125 580 125 532 125 498 139 466 153 445 181 408 232 408 340
L 408 960 709 960 709 1112 408 1112 408 1425 252 1425 229 1112 55 1102 55 960 221 960 221 344
Q 221 258 237 193 255 123 291 76 329 26 389 0 452 -27 539 -27 Z"/>

<glyph unicode="f" horiz-adv-x="665.5999755859375" d="
M 219 0
L 405 0 405 960 641 960 641 1112 405 1112 405 1288
Q 405 1397 444 1452 484 1507 563 1507 624 1507 688 1479
L 729 1620
Q 645 1657 543 1657 461 1657 399 1631 339 1606 298 1558 258 1511 239 1443 219 1376 219 1290
L 219 1112 68 1102 68 960 219 960 219 0 Z"/>

<glyph unicode="u" horiz-adv-x="1243.135986328125" d="
M 512 -27
Q 568 -27 620 -12 669 1 715 28 796 76 881 174
L 887 174 901 0 1057 0 1057 1112 870 1112 870 324
Q 789 222 723 179 654 135 569 135 514 135 474 152 435 169 410 205 384 241 372 297 360 352 360 430
L 360 1112 174 1112 174 408
Q 174 301 194 220 214 139 255 84 297 29 361 1 425 -27 512 -27 Z"/>

<glyph unicode="d" horiz-adv-x="1269.760009765625" d="
M 608 129
Q 535 129 477 158 420 187 381 242 342 298 321 377 301 457 301 557 301 650 326 731 350 808 394 865 438 922 496 952 556 983 623 983 693 983 757 956 824 928 895 866
L 895 283
Q 823 205 755 167 684 129 608 129 Z
M 567 -27
Q 661 -27 753 20 832 60 905 131
L 911 131 928 0 1079 0 1079 1630 895 1630 895 1202 903 1010
Q 822 1077 759 1106 682 1141 590 1141 495 1141 407 1100 320 1059 254 983 185 904 148 799 109 645 109 555 109 418 141 308 173 201 233 125 294 51 378 12 463 -27 567 -27 Z"/>

<glyph unicode="." horiz-adv-x="569.343994140625" d="
M 285 -27
Q 341 -27 380 13 420 53 420 115 420 178 380 220 341 260 285 260 228 260 189 220 150 178 150 115 150 53 189 13 228 -27 285 -27 Z"/>

<glyph unicode="h" horiz-adv-x="1243.135986328125" d="
M 188 0
L 375 0 375 807
Q 466 898 527 934 599 977 680 977 736 977 775 960 815 943 841 907 866 871 879 814 891 759 891 680
L 891 0 1077 0 1077 705
Q 1077 812 1057 893 1036 975 995 1029 953 1085 889 1113 824 1141 737 1141 682 1141 630 1126 582 1112 535 1086 457 1042 369 954
L 375 1184 375 1630 188 1630 188 0 Z"/>

<glyph unicode="x" horiz-adv-x="1019.9039916992188" d="
M 31 0
L 227 0 377 260 492 459 502 459 621 260 784 0 989 0 623 561 960 1112 766 1112 629 868 528 682 520 682 410 868 260 1112 59 1112 397 580 31 0 Z"/>

<glyph unicode="r" horiz-adv-x="794.6240234375" d="
M 188 0
L 375 0 375 715
Q 401 783 437 835 469 883 508 914 578 971 655 971 716 971 764 952
L 799 1116
Q 752 1141 680 1141 634 1141 589 1124 545 1109 505 1078 465 1048 429 1005
L 365 909 358 909 342 1112 188 1112 188 0 Z"/>

<glyph unicode="w" horiz-adv-x="1642.4959716796875" d="
M 365 0
L 584 0 739 596 815 920 825 920 901 600 1063 0 1288 0 1587 1112 1411 1112 1247 469 1178 158 1169 158 1092 469 917 1112 735 1112 563 469 487 158 477 158 412 469 246 1112 55 1112 365 0 Z"/>

<glyph unicode="l" horiz-adv-x="583.6799926757812" d="
M 385 -27
Q 451 -27 494 -10
L 467 133 428 129
Q 375 129 375 209
L 375 1630 188 1630 188 221
Q 188 161 200 116 211 69 234 38 259 6 296 -10 333 -27 385 -27 Z"/>
</font>

<font horiz-adv-x="2048">
<!--  :  Regular
 ID: ADBO
 2014-2019 Adobe (http://www.adobe.com/), with Reserved Font Name 'Source'.
http://scripts.sil.org/OFL
URL for more Information: http://www.adobe.com/go/font_vendor_id?ID=ADBO&Name=&PSName=SourceHanSansSC-Regular&applanguage=zh_CN-->
<font-face font-family="BloggerSans_Regular" units-per-em="2048" ascent="2375.684814453125" descent="589.8251953125"/>

<glyph unicode="b" horiz-adv-x="1265.6639404296875" d="
M 647 129
Q 586 129 520 155 444 185 375 246
L 375 829
Q 456 906 529 944 604 983 674 983 751 983 809 953 863 925 899 869 934 816 951 739 967 666 967 571 967 470 943 386 920 305 876 247 833 189 775 159 716 129 647 129 Z
M 678 -27
Q 774 -27 861 14 949 54 1016 131 1084 210 1122 320 1147 394 1161 575 1161 703 1132 807 1103 912 1047 986 990 1061 908 1100 823 1141 717 1141 630 1141 534 1095 450 1054 369 983
L 375 1184 375 1630 188 1630 188 0 338 0 354 115 362 115
Q 435 48 518 11 601 -27 678 -27 Z"/>

<glyph unicode="a" horiz-adv-x="1155.072021484375" d="
M 444 -27
Q 540 -27 640 20 724 60 813 133
L 819 133 836 0 989 0 989 684
Q 989 789 967 871 944 956 898 1015 850 1076 778 1108 704 1141 604 1141 541 1141 475 1127
L 357 1093
Q 262 1057 166 995
L 240 866
Q 318 919 391 948 485 985 573 985 639 985 686 961 729 940 756 899 781 861 793 809 803 762 803 705 623 684 496 651 366 617 283 567 200 517 159 448 119 380 119 289 119 215 143 155 167 97 212 56 255 16 315 -6 374 -27 444 -27 Z
M 498 123
Q 409 123 358 164 331 187 316 220 301 255 301 301 301 356 327 399 354 444 411 478 471 514 566 539 664 565 803 582
L 803 270
Q 717 194 650 161 576 123 498 123 Z"/>

<glyph unicode="c" horiz-adv-x="1042.4320068359375" d="
M 627 -27
Q 726 -27 819 10 911 47 987 115
L 905 240
Q 849 189 786 161 716 129 643 129 567 129 503 160 440 190 394 246 348 303 324 380 299 460 299 555 299 650 325 730 351 808 398 866 445 923 509 954 574 985 649 985 711 985 768 957 816 934 870 887
L 967 1010
Q 897 1070 828 1101 741 1141 641 1141 534 1141 437 1101 340 1062 266 987 176 875 148 803 104 648 104 555 119 380 145 309 183 202 255 126 325 52 421 12 516 -27 627 -27 Z"/>

<glyph unicode="k" horiz-adv-x="1130.4959716796875" d="
M 188 0
L 373 0 373 293 582 537 907 0 1110 0 690 664 1061 1112 852 1112 379 524 373 524 373 1630 188 1630 188 0 Z"/>

<glyph unicode=" " horiz-adv-x="458.75201416015625"/>

<glyph unicode="h" horiz-adv-x="1243.135986328125" d="
M 188 0
L 375 0 375 807
Q 466 898 527 934 599 977 680 977 736 977 775 960 815 943 841 907 866 871 879 814 891 759 891 680
L 891 0 1077 0 1077 705
Q 1077 812 1057 893 1036 975 995 1029 953 1085 889 1113 824 1141 737 1141 682 1141 630 1126 582 1112 535 1086 457 1042 369 954
L 375 1184 375 1630 188 1630 188 0 Z"/>

<glyph unicode="o" horiz-adv-x="1241.0880126953125" d="
M 621 129
Q 549 129 489 160 430 190 388 246 345 303 322 380 299 460 299 555 299 650 322 730 345 809 388 866 430 923 489 954 549 985 621 985 692 985 752 954 811 923 855 866 898 809 921 730 944 650 944 555 944 460 921 380 898 303 855 246 811 190 752 160 692 129 621 129 Z
M 621 -27
Q 723 -27 816 12 910 52 981 126 1054 203 1094 309
L 1126 424 1137 555
Q 1137 648 1094 803 1054 909 981 987 910 1062 816 1101 723 1141 621 1141 518 1141 425 1101 331 1062 260 987 187 909 147 803 104 648 104 555
L 115 424 147 309
Q 187 203 260 126 331 52 425 12 518 -27 621 -27 Z"/>

<glyph unicode="m" horiz-adv-x="1896.447998046875" d="
M 188 0
L 375 0 375 807
Q 451 892 522 935 592 977 655 977 709 977 747 960 786 943 812 907 837 871 850 814 862 758 862 680
L 862 0 1049 0 1049 807
Q 1127 893 1196 935 1265 977 1329 977 1383 977 1421 960 1460 943 1486 907 1511 871 1524 814 1536 758 1536 680
L 1536 0 1722 0 1722 705
Q 1722 812 1702 893 1681 975 1639 1029 1597 1085 1534 1113 1470 1141 1384 1141 1335 1141 1286 1125 1240 1110 1193 1081 1112 1030 1018 928 1001 978 975 1016 948 1056 911 1083 873 1112 824 1126 773 1141 711 1141 662 1141 614 1126 569 1112 524 1085 444 1038 365 950
L 358 950 342 1112 188 1112 188 0 Z"/>

<glyph unicode="e" horiz-adv-x="1134.592041015625" d="
M 637 -27
Q 743 -27 841 7 923 35 1006 88
L 938 211
Q 874 168 809 146 738 123 659 123 581 123 515 150 449 177 401 228 352 280 324 351 295 424 291 512
L 1040 512 1049 618
Q 1049 737 1019 834 990 930 933 999 876 1068 795 1104 711 1141 606 1141 509 1141 419 1100 328 1059 259 983 186 904 147 799 104 645 104 555
L 115 425 146 309
Q 186 203 260 127 332 52 429 13 526 -27 637 -27 Z
M 289 647
Q 297 727 326 793 354 855 398 901 441 945 495 968 549 991 608 991 673 991 725 969 776 947 812 903 848 859 866 795 885 730 885 647
L 289 647 Z"/>
</font>
</defs>
</svg>
